<svg version="1.1" id="Layer_1" xmlns="http://www.w3.org/2000/svg" xmlns:xlink="http://www.w3.org/1999/xlink" x="0px" y="0px"
	 width="100%" viewBox="0 0 500 500" enable-background="new 0 0 500 500" xml:space="preserve">
<path fill="#000000" opacity="1.000000" stroke="none" 
	d="
M465.000000,501.000000 
	C310.000031,501.000000 155.500076,501.000000 1.000083,501.000000 
	C1.000055,334.333405 1.000055,167.666824 1.000028,1.000172 
	C167.666550,1.000115 334.333099,1.000115 500.999756,1.000057 
	C500.999817,167.666519 500.999817,334.333038 500.999908,500.999756 
	C489.166656,501.000000 477.333344,501.000000 465.000000,501.000000 
M261.709290,243.734039 
	C262.501190,242.133301 263.293091,240.532578 264.084991,238.931854 
	C263.720673,238.752884 263.356354,238.573914 262.992035,238.394943 
	C262.107819,240.028061 261.223602,241.661179 259.922607,243.631729 
	C259.616394,243.809631 259.310211,243.987534 258.402802,243.777069 
	C253.838165,236.425629 246.429901,237.955643 239.712387,238.264923 
	C237.956253,238.345795 236.328369,241.212097 233.788849,243.601471 
	C240.514862,243.990463 245.457962,244.276352 250.401062,244.562241 
	C250.485947,245.178848 250.570831,245.795471 250.655716,246.412079 
	C246.624924,248.013153 242.598663,249.625809 238.562057,251.212082 
	C234.435883,252.833542 232.247986,255.994537 232.082321,260.269073 
	C231.931625,264.157562 234.197662,267.504486 237.747452,268.052094 
	C242.466843,268.780212 247.633102,268.829071 252.183228,267.599762 
	C254.883392,266.870270 255.916046,266.923218 256.856201,269.602692 
	C256.401703,269.885651 255.947205,270.168610 256.274231,269.964996 
	C259.773346,270.289185 263.871033,270.096954 267.634521,271.126434 
	C278.250061,274.030212 288.565826,278.256348 299.312042,280.384644 
	C307.957764,282.096954 317.219269,282.783661 325.925385,281.686554 
	C345.824585,279.178925 359.880066,267.906921 367.804779,249.412552 
	C370.911652,242.161819 373.280212,234.636627 372.924133,226.413696 
	C371.408386,226.807144 370.188446,226.888489 369.206543,227.414307 
	C356.407074,234.268250 343.785797,232.011826 331.054596,227.056702 
	C319.571350,222.587280 308.015320,218.823303 295.236511,219.822098 
	C286.921814,220.471985 279.561859,222.975449 273.042450,227.692215 
	C269.538391,230.227402 266.970276,234.056305 263.979858,237.301453 
	C264.533569,237.787415 265.087250,238.273376 265.640930,238.759338 
	C267.127930,236.972443 268.457703,235.020767 270.128754,233.426819 
	C277.855225,226.056900 287.418823,222.134460 297.754852,223.314270 
	C306.306824,224.290451 314.806000,227.339432 322.871674,230.600098 
	C335.967621,235.894318 348.803314,241.525024 363.774963,237.923798 
	C357.838623,257.259583 347.125885,271.180664 326.860657,276.123138 
	C311.891663,279.773926 297.329712,277.860596 282.640564,274.414795 
	C274.760223,272.566193 267.548492,267.806000 259.000549,267.919128 
	C259.039642,260.957184 259.078766,253.995224 259.704163,246.794403 
	C260.161560,245.889023 260.618988,244.983643 261.709290,243.734039 
M287.986786,261.013733 
	C287.986786,261.013733 287.900208,260.934357 287.356720,261.633575 
	C289.206482,262.422333 291.003815,263.682892 292.917603,263.895691 
	C296.274017,264.268890 299.701782,263.999847 304.247131,263.999847 
	C303.668488,259.422363 303.164276,254.670105 302.375763,249.965500 
	C302.248016,249.203461 300.937439,248.259949 300.037231,248.079117 
	C297.454071,247.560226 294.800934,247.389679 292.175293,247.082230 
	C292.189606,246.931061 292.203918,246.779892 292.218231,246.628723 
	C306.426270,246.628723 320.634338,246.628723 334.842377,246.628723 
	C334.292023,247.659119 333.700378,247.832214 333.103546,247.984879 
	C331.074554,248.503815 328.855164,248.658203 327.054871,249.608261 
	C323.815338,251.317871 328.072296,256.033295 324.146912,257.812347 
	C323.876373,257.934967 323.838837,259.170074 324.087982,259.703217 
	C324.476959,260.535583 325.114441,261.749664 325.802490,261.863953 
	C330.409821,262.629456 335.079895,263.713959 339.685944,263.539886 
	C342.635773,263.428375 344.039307,260.719055 342.723145,258.119934 
	C339.462219,259.456940 336.434937,260.998322 333.224823,261.853027 
	C332.087280,262.155914 330.504333,260.785950 329.124725,260.179688 
	C330.380615,259.453430 331.576324,258.576935 332.909210,258.042847 
	C334.261047,257.501160 335.748413,257.297607 337.176422,256.945984 
	C337.049988,256.399414 336.923553,255.852859 336.797119,255.306305 
	C334.585754,255.098663 332.374420,254.891037 330.163055,254.683395 
	C330.083252,254.125381 330.003479,253.567368 329.923676,253.009354 
	C333.254517,252.476944 336.585327,251.944534 340.074554,251.386795 
	C339.685486,249.635361 339.344757,248.101425 339.005249,246.572937 
	C340.887024,245.324600 345.562347,247.374130 343.554657,242.234726 
	C317.194305,242.234726 290.786285,242.234726 264.378235,242.234726 
	C264.095673,242.660172 263.813141,243.085617 263.530579,243.511078 
	C264.673431,244.339981 265.762543,245.777039 266.969177,245.883606 
	C270.569672,246.201599 274.216278,245.997803 277.844849,245.997803 
	C270.535339,246.655258 265.848846,249.419861 265.205872,254.450485 
	C264.733063,258.149658 269.401611,263.078644 274.214233,263.961334 
	C278.993317,264.837921 281.918488,263.327393 283.058044,258.489197 
	C280.677277,259.277405 278.768921,259.765717 276.980377,260.533234 
	C273.872925,261.866699 268.648102,260.273987 269.278992,257.999298 
	C270.049408,255.221527 272.031616,252.319763 274.337860,250.627243 
	C275.447083,249.813202 278.533905,251.564117 280.662994,252.327087 
	C281.650574,252.681000 282.489594,253.449509 283.698059,254.223557 
	C282.921753,251.031464 282.358582,248.715668 281.750702,246.216125 
	C284.344269,246.216125 285.958252,246.216125 287.789215,246.216125 
	C287.943237,248.456863 288.084015,250.504883 288.190277,252.050659 
	C291.833862,251.682159 295.248810,251.336792 298.663727,250.991409 
	C295.428436,252.344772 292.091522,252.738312 289.255707,254.143295 
	C287.731445,254.898483 286.952271,257.337555 286.130066,259.149811 
	C285.995544,259.446320 287.382172,260.432983 287.986786,261.013733 
M159.628769,239.853302 
	C159.131973,241.073288 158.635178,242.293259 158.082626,243.650177 
	C163.646042,243.995621 168.522995,244.298431 173.399948,244.601242 
	C173.441849,245.170410 173.483765,245.739578 173.525665,246.308746 
	C169.064896,248.196167 164.523178,249.916138 160.167969,252.021881 
	C156.413544,253.837143 153.826859,257.308838 155.276428,261.229828 
	C156.380829,264.217224 159.321518,267.727448 162.166382,268.569794 
	C165.839859,269.657501 170.234665,268.351105 174.313416,268.010590 
	C176.371002,267.838776 178.416595,267.523468 180.985306,267.209869 
	C180.985306,260.077515 181.076202,252.136002 180.891342,244.200912 
	C180.862228,242.951019 179.886200,241.107605 178.834885,240.598785 
	C172.810211,237.683014 166.507294,236.762924 159.628769,239.853302 
M218.517212,260.904572 
	C215.587952,263.359589 215.591370,260.016266 215.146866,258.897308 
	C213.339539,254.347748 211.858307,249.668625 210.429718,245.537216 
	C211.943253,243.073029 213.306351,240.853775 214.870499,238.307236 
	C202.907822,237.417007 202.907822,237.417007 200.902054,242.646317 
	C202.177887,244.409317 203.423813,245.597687 204.022644,247.052414 
	C206.390549,252.804886 208.374023,258.721680 210.901520,264.398773 
	C211.708603,266.211639 213.837753,268.760864 215.221497,268.676239 
	C217.211151,268.554535 219.940582,266.750916 220.822769,264.925232 
	C223.302368,259.793762 224.983459,254.278000 227.012802,248.926453 
	C227.627716,247.304901 228.055801,245.489273 229.096359,244.181870 
	C230.575180,242.323822 232.541061,240.853394 234.914841,238.643997 
	C221.257584,237.290787 220.786880,237.607712 219.991882,243.779510 
	C221.580948,243.982117 223.170029,244.184738 225.363663,244.464447 
	C223.101273,250.006729 221.005493,255.140823 218.517212,260.904572 
M193.002121,234.636108 
	C191.576736,231.828537 190.151352,229.020966 188.419846,225.610428 
	C186.689056,232.546967 185.323669,238.019119 183.887955,243.773056 
	C187.362625,242.853653 187.043304,245.608749 187.009476,248.221741 
	C186.966492,251.541733 186.975922,254.862961 187.007935,258.183228 
	C187.039215,261.428741 192.210373,268.365234 195.267700,268.886078 
	C198.544495,269.444244 201.417160,268.845001 202.974503,265.241730 
	C205.074844,260.382141 200.180527,259.935638 198.947556,257.884094 
	C197.251709,259.710327 195.653870,261.431030 194.056030,263.151733 
	C193.320724,254.049026 190.274338,244.993515 198.644913,239.535126 
	C196.407272,237.920700 194.709747,236.695969 193.002121,234.636108 
M145.359589,263.208130 
	C135.305588,267.446075 133.367096,258.006439 128.562073,253.015137 
	C129.039780,256.298309 129.703400,259.306274 131.071045,261.949982 
	C134.494492,268.567627 142.685806,271.074310 149.370895,267.842072 
	C155.276779,264.986511 155.745850,258.840912 150.238663,255.111343 
	C147.935898,253.551865 145.324066,252.454254 142.980667,250.947723 
	C140.660492,249.456100 138.115829,247.912018 139.490021,244.137924 
	C143.881683,244.084427 148.788452,244.798569 149.607300,238.032761 
	C146.294067,238.032761 142.842606,237.400192 139.794006,238.236374 
	C137.429382,238.884964 134.889542,241.007538 133.738815,243.172028 
	C133.054840,244.458572 134.387039,247.586868 135.735153,249.018570 
	C138.293884,251.735977 141.647125,253.686020 144.415939,256.231506 
	C146.297379,257.961212 150.431030,259.505768 145.359589,263.208130 
M317.495514,255.988419 
	C320.780273,257.319092 321.996735,254.783997 322.504700,252.629898 
	C322.762451,251.537018 321.175903,248.971222 320.123901,248.787842 
	C315.662933,248.010178 311.089783,247.876007 306.652893,247.514496 
	C304.566162,260.522919 305.379211,263.593994 310.760376,264.423370 
	C311.743958,250.646805 313.636932,247.316559 318.868195,250.614792 
	C317.587799,251.577972 316.374115,252.490997 314.614166,253.814941 
	C315.640381,254.540970 316.324066,255.024658 317.495514,255.988419 
z"/>
<path fill="#F27E00" opacity="1.000000" stroke="none" 
	d="
M259.001282,268.834137 
	C267.548492,267.806000 274.760223,272.566193 282.640564,274.414795 
	C297.329712,277.860596 311.891663,279.773926 326.860657,276.123138 
	C347.125885,271.180664 357.838623,257.259583 363.774963,237.923798 
	C348.803314,241.525024 335.967621,235.894318 322.871674,230.600098 
	C314.806000,227.339432 306.306824,224.290451 297.754852,223.314270 
	C287.418823,222.134460 277.855225,226.056900 270.128754,233.426819 
	C268.457703,235.020767 267.127930,236.972443 265.640930,238.759338 
	C265.087250,238.273376 264.533569,237.787415 263.979858,237.301453 
	C266.970276,234.056305 269.538391,230.227402 273.042450,227.692215 
	C279.561859,222.975449 286.921814,220.471985 295.236511,219.822098 
	C308.015320,218.823303 319.571350,222.587280 331.054596,227.056702 
	C343.785797,232.011826 356.407074,234.268250 369.206543,227.414307 
	C370.188446,226.888489 371.408386,226.807144 372.924133,226.413696 
	C373.280212,234.636627 370.911652,242.161819 367.804779,249.412552 
	C359.880066,267.906921 345.824585,279.178925 325.925385,281.686554 
	C317.219269,282.783661 307.957764,282.096954 299.312042,280.384644 
	C288.565826,278.256348 278.250061,274.030212 267.634521,271.126434 
	C263.871033,270.096954 259.773346,270.289185 256.274231,269.964996 
	C255.947205,270.168610 256.401703,269.885651 257.319092,269.294983 
	C258.188385,268.936249 258.594849,268.885193 259.001282,268.834137 
z"/>
<path fill="#F27E00" opacity="1.000000" stroke="none" 
	d="
M288.065765,261.100647 
	C287.382172,260.432983 285.995544,259.446320 286.130066,259.149811 
	C286.952271,257.337555 287.731445,254.898483 289.255707,254.143295 
	C292.091522,252.738312 295.428436,252.344772 298.663727,250.991409 
	C295.248810,251.336792 291.833862,251.682159 288.190277,252.050659 
	C288.084015,250.504883 287.943237,248.456863 287.789215,246.216125 
	C285.958252,246.216125 284.344269,246.216125 281.750702,246.216125 
	C282.358582,248.715668 282.921753,251.031464 283.698059,254.223557 
	C282.489594,253.449509 281.650574,252.681000 280.662994,252.327087 
	C278.533905,251.564117 275.447083,249.813202 274.337860,250.627243 
	C272.031616,252.319763 270.049408,255.221527 269.278992,257.999298 
	C268.648102,260.273987 273.872925,261.866699 276.980377,260.533234 
	C278.768921,259.765717 280.677277,259.277405 283.058044,258.489197 
	C281.918488,263.327393 278.993317,264.837921 274.214233,263.961334 
	C269.401611,263.078644 264.733063,258.149658 265.205872,254.450485 
	C265.848846,249.419861 270.535339,246.655258 277.844849,245.997803 
	C274.216278,245.997803 270.569672,246.201599 266.969177,245.883606 
	C265.762543,245.777039 264.673431,244.339981 263.530579,243.511078 
	C263.813141,243.085617 264.095673,242.660172 264.378235,242.234726 
	C290.786285,242.234726 317.194305,242.234726 343.554657,242.234726 
	C345.562347,247.374130 340.887024,245.324600 339.005249,246.572937 
	C339.344757,248.101425 339.685486,249.635361 340.074554,251.386795 
	C336.585327,251.944534 333.254517,252.476944 329.923676,253.009354 
	C330.003479,253.567368 330.083252,254.125381 330.163055,254.683395 
	C332.374420,254.891037 334.585754,255.098663 336.797119,255.306305 
	C336.923553,255.852859 337.049988,256.399414 337.176422,256.945984 
	C335.748413,257.297607 334.261047,257.501160 332.909210,258.042847 
	C331.576324,258.576935 330.380615,259.453430 329.124725,260.179688 
	C330.504333,260.785950 332.087280,262.155914 333.224823,261.853027 
	C336.434937,260.998322 339.462219,259.456940 342.723145,258.119934 
	C344.039307,260.719055 342.635773,263.428375 339.685944,263.539886 
	C335.079895,263.713959 330.409821,262.629456 325.802490,261.863953 
	C325.114441,261.749664 324.476959,260.535583 324.087982,259.703217 
	C323.838837,259.170074 323.876373,257.934967 324.146912,257.812347 
	C328.072296,256.033295 323.815338,251.317871 327.054871,249.608261 
	C328.855164,248.658203 331.074554,248.503815 333.103546,247.984879 
	C333.700378,247.832214 334.292023,247.659119 334.842377,246.628723 
	C320.634338,246.628723 306.426270,246.628723 292.218231,246.628723 
	C292.203918,246.779892 292.189606,246.931061 292.175293,247.082230 
	C294.800934,247.389679 297.454071,247.560226 300.037231,248.079117 
	C300.937439,248.259949 302.248016,249.203461 302.375763,249.965500 
	C303.164276,254.670105 303.668488,259.422363 304.247131,263.999847 
	C299.701782,263.999847 296.274017,264.268890 292.917603,263.895691 
	C291.003815,263.682892 289.206482,262.422333 288.063416,261.311462 
	C292.558563,261.081421 296.432556,261.403412 298.713074,257.334747 
	C293.672668,254.648178 289.939087,255.984543 288.065765,261.100647 
z"/>
<path fill="#5AA81D" opacity="1.000000" stroke="none" 
	d="
M259.000916,268.376648 
	C258.594849,268.885193 258.188385,268.936249 257.474121,268.994324 
	C255.916046,266.923218 254.883392,266.870270 252.183228,267.599762 
	C247.633102,268.829071 242.466843,268.780212 237.747452,268.052094 
	C234.197662,267.504486 231.931625,264.157562 232.082321,260.269073 
	C232.247986,255.994537 234.435883,252.833542 238.562057,251.212082 
	C242.598663,249.625809 246.624924,248.013153 250.655716,246.412079 
	C250.570831,245.795471 250.485947,245.178848 250.401062,244.562241 
	C245.457962,244.276352 240.514862,243.990463 233.788849,243.601471 
	C236.328369,241.212097 237.956253,238.345795 239.712387,238.264923 
	C246.429901,237.955643 253.838165,236.425629 258.701294,244.331146 
	C259.039154,245.601227 259.078522,246.317245 259.117859,247.033264 
	C259.078766,253.995224 259.039642,260.957184 259.000916,268.376648 
M251.067352,261.387482 
	C251.896942,258.123016 252.726547,254.858551 253.853180,250.425232 
	C249.592209,252.050934 247.023010,253.033234 244.451797,254.010208 
	C243.994980,254.183792 243.468643,254.245590 243.078308,254.511505 
	C240.317200,256.392426 237.457794,258.799561 239.094070,262.299774 
	C240.835770,266.025421 244.351257,265.577576 247.589813,263.732697 
	C248.583603,263.166565 249.549332,262.551208 251.067352,261.387482 
z"/>
<path fill="#5AA81D" opacity="1.000000" stroke="none" 
	d="
M159.818741,239.479889 
	C166.507294,236.762924 172.810211,237.683014 178.834885,240.598785 
	C179.886200,241.107605 180.862228,242.951019 180.891342,244.200912 
	C181.076202,252.136002 180.985306,260.077515 180.985306,267.209869 
	C178.416595,267.523468 176.371002,267.838776 174.313416,268.010590 
	C170.234665,268.351105 165.839859,269.657501 162.166382,268.569794 
	C159.321518,267.727448 156.380829,264.217224 155.276428,261.229828 
	C153.826859,257.308838 156.413544,253.837143 160.167969,252.021881 
	C164.523178,249.916138 169.064896,248.196167 173.525665,246.308746 
	C173.483765,245.739578 173.441849,245.170410 173.399948,244.601242 
	C168.522995,244.298431 163.646042,243.995621 158.082626,243.650177 
	C158.635178,242.293259 159.131973,241.073288 159.818741,239.479889 
M162.467758,257.092651 
	C162.388367,259.201996 161.546036,262.679535 162.382690,263.146057 
	C164.341721,264.238434 167.382980,264.693390 169.490707,263.967682 
	C175.451401,261.915344 175.721436,260.730530 174.497589,250.820206 
	C170.481125,252.816864 166.732986,254.680161 162.467758,257.092651 
z"/>
<path fill="#5AA81D" opacity="1.000000" stroke="none" 
	d="
M218.713470,260.589752 
	C221.005493,255.140823 223.101273,250.006729 225.363663,244.464447 
	C223.170029,244.184738 221.580948,243.982117 219.990494,243.779449 
	C220.786880,237.607712 221.257584,237.290787 234.914841,238.643997 
	C232.541061,240.853394 230.575180,242.323822 229.096359,244.181870 
	C228.055801,245.489273 227.627716,247.304901 227.012802,248.926453 
	C224.983459,254.278000 223.302368,259.793762 220.822769,264.925232 
	C219.940582,266.750916 217.211151,268.554535 215.221497,268.676239 
	C213.837753,268.760864 211.708603,266.211639 210.901520,264.398773 
	C208.374023,258.721680 206.390549,252.804886 204.022644,247.052414 
	C203.423813,245.597687 202.177887,244.409317 200.902054,242.646317 
	C202.907822,237.417007 202.907822,237.417007 214.870499,238.307236 
	C213.306351,240.853775 211.943253,243.073029 210.429718,245.537216 
	C211.858307,249.668625 213.339539,254.347748 215.146866,258.897308 
	C215.591370,260.016266 215.587952,263.359589 218.713470,260.589752 
z"/>
<path fill="#5AA81D" opacity="1.000000" stroke="none" 
	d="
M193.007172,235.053680 
	C194.709747,236.695969 196.407272,237.920700 198.644913,239.535126 
	C190.274338,244.993515 193.320724,254.049026 194.056030,263.151733 
	C195.653870,261.431030 197.251709,259.710327 198.947556,257.884094 
	C200.180527,259.935638 205.074844,260.382141 202.974503,265.241730 
	C201.417160,268.845001 198.544495,269.444244 195.267700,268.886078 
	C192.210373,268.365234 187.039215,261.428741 187.007935,258.183228 
	C186.975922,254.862961 186.966492,251.541733 187.009476,248.221741 
	C187.043304,245.608749 187.362625,242.853653 183.887955,243.773056 
	C185.323669,238.019119 186.689056,232.546967 188.419846,225.610428 
	C190.151352,229.020966 191.576736,231.828537 193.007172,235.053680 
z"/>
<path fill="#5AA81D" opacity="1.000000" stroke="none" 
	d="
M145.738190,263.080078 
	C150.431030,259.505768 146.297379,257.961212 144.415939,256.231506 
	C141.647125,253.686020 138.293884,251.735977 135.735153,249.018570 
	C134.387039,247.586868 133.054840,244.458572 133.738815,243.172028 
	C134.889542,241.007538 137.429382,238.884964 139.794006,238.236374 
	C142.842606,237.400192 146.294067,238.032761 149.607300,238.032761 
	C148.788452,244.798569 143.881683,244.084427 139.490021,244.137924 
	C138.115829,247.912018 140.660492,249.456100 142.980667,250.947723 
	C145.324066,252.454254 147.935898,253.551865 150.238663,255.111343 
	C155.745850,258.840912 155.276779,264.986511 149.370895,267.842072 
	C142.685806,271.074310 134.494492,268.567627 131.071045,261.949982 
	C129.703400,259.306274 129.039780,256.298309 128.562073,253.015137 
	C133.367096,258.006439 135.305588,267.446075 145.738190,263.080078 
z"/>
<path fill="#F27E00" opacity="1.000000" stroke="none" 
	d="
M317.251648,255.748383 
	C316.324066,255.024658 315.640381,254.540970 314.614166,253.814941 
	C316.374115,252.490997 317.587799,251.577972 318.868195,250.614792 
	C313.636932,247.316559 311.743958,250.646805 310.760376,264.423370 
	C305.379211,263.593994 304.566162,260.522919 306.652893,247.514496 
	C311.089783,247.876007 315.662933,248.010178 320.123901,248.787842 
	C321.175903,248.971222 322.762451,251.537018 322.504700,252.629898 
	C321.996735,254.783997 320.780273,257.319092 317.251648,255.748383 
z"/>
<path fill="#F27E00" opacity="1.000000" stroke="none" 
	d="
M260.339386,243.294312 
	C261.223602,241.661179 262.107819,240.028061 262.992035,238.394943 
	C263.356354,238.573914 263.720673,238.752884 264.084991,238.931854 
	C263.293091,240.532578 262.501190,242.133301 261.210999,243.707901 
	C260.588287,243.552612 260.463837,243.423462 260.339386,243.294312 
z"/>
<path fill="#F27E00" opacity="1.000000" stroke="none" 
	d="
M259.411011,246.913834 
	C259.078522,246.317245 259.039154,245.601227 259.001923,244.525330 
	C259.310211,243.987534 259.616394,243.809631 260.130981,243.463013 
	C260.463837,243.423462 260.588287,243.552612 260.894562,243.880020 
	C260.618988,244.983643 260.161560,245.889023 259.411011,246.913834 
z"/>
<path fill="#000000" opacity="1.000000" stroke="none" 
	d="
M288.026276,261.057190 
	C289.939087,255.984543 293.672668,254.648178 298.713074,257.334747 
	C296.432556,261.403412 292.558563,261.081421 288.335175,260.961853 
	C287.900208,260.934357 287.986786,261.013733 288.026276,261.057190 
z"/>
<path fill="#000000" opacity="1.000000" stroke="none" 
	d="
M250.797638,261.672913 
	C249.549332,262.551208 248.583603,263.166565 247.589813,263.732697 
	C244.351257,265.577576 240.835770,266.025421 239.094070,262.299774 
	C237.457794,258.799561 240.317200,256.392426 243.078308,254.511505 
	C243.468643,254.245590 243.994980,254.183792 244.451797,254.010208 
	C247.023010,253.033234 249.592209,252.050934 253.853180,250.425232 
	C252.726547,254.858551 251.896942,258.123016 250.797638,261.672913 
z"/>
<path fill="#000000" opacity="1.000000" stroke="none" 
	d="
M162.726303,256.818054 
	C166.732986,254.680161 170.481125,252.816864 174.497589,250.820206 
	C175.721436,260.730530 175.451401,261.915344 169.490707,263.967682 
	C167.382980,264.693390 164.341721,264.238434 162.382690,263.146057 
	C161.546036,262.679535 162.388367,259.201996 162.726303,256.818054 
z"/>
</svg>